# xmcd
#
# Track frame offsets: 
#        150
#        12789
#        23534
#        31738
#        44880
#        59052
#        73044
#        85272
#        100199
#        111964
#        120947
#        132702
#        141090
#        155039
#        167350
#        178377
#        191925
#        201389
#        214967
#        223036
#        234755
#        244336
#        254478
#        267016
#        280754
#
# Disc length: 3935 seconds
#
# Revision: 0
# Processed by: cddbd v1.5.1PL2 Copyright (c) Steve Scherf et al.
# Submitted via: ExactAudioCopy v0.95b3
#
DISCID=7d0f5d19
DTITLE=Willie Nelson - The Storm Has Just Begun
DYEAR=2005
DGENRE=Country
TTITLE0=Any Old Arms Won't Do
TTITLE1=Blame It On The Times
TTITLE2=You Wouldn't Cross The Street To Say Goodbye
TTITLE3=You'll Always Have Someone
TTITLE4=Rainy Day Blues
TTITLE5=So Much To Do
TTITLE6=I Can't Find The Time
TTITLE7=Face Of A Fighter
TTITLE8=Is There Someting On Your Mind
TTITLE9=Waiting Time
TTITLE10=Night Life
TTITLE11=Slow Down Old World
TTITLE12=Home Is Where You're Happy
TTITLE13=Shelter Of Your Arms
TTITLE14=Go Away
TTITLE15=Everything But You
TTITLE16=Building Heartaches
TTITLE17=The Last Letter
TTITLE18=Things To Remember
TTITLE19=I Hope So
TTITLE20=Let's Pretend
TTITLE21=Pride Wins Again
TTITLE22=The Storm Has Just Begun
TTITLE23=No Tomorrow In Sight
TTITLE24=Will You Remember Mine
EXTD=
EXTT0=
EXTT1=
EXTT2=
EXTT3=
EXTT4=
EXTT5=
EXTT6=
EXTT7=
EXTT8=
EXTT9=
EXTT10=
EXTT11=
EXTT12=
EXTT13=
EXTT14=
EXTT15=
EXTT16=
EXTT17=
EXTT18=
EXTT19=
EXTT20=
EXTT21=
EXTT22=
EXTT23=
EXTT24=
PLAYORDER=
